<?xml version="1.0" encoding="UTF-8"?><svg id="Layer_2" xmlns="http://www.w3.org/2000/svg" viewBox="0 0 68.58 68.25"><defs><style>.cls-1{fill:#1e1e1e;fill-rule:evenodd;}</style></defs><g id="Isolation_Mode"><path class="cls-1" d="M16.53,48.17s.18-.18.37-.49c.31-.52.56-1.26.68-2.13,0-.05,0-.11.02-.16.1-.86.05-1.65-.12-2.23-.1-.35-.19-.56-.23-.57-.04,0-.18.18-.37.49-.32.53-.57,1.31-.68,2.2-.11.9-.06,1.71.11,2.31.1.35.19.56.23.57h0ZM6,25.71c-.79-.79-1.18-1.82-1.18-2.85s.39-2.06,1.18-2.85h0c.79-.79,1.82-1.18,2.85-1.18s2.06.39,2.85,1.18h0s.05.06.05.06c.75.78,1.13,1.79,1.13,2.79s-.39,2.06-1.18,2.85h0c-.79.79-1.82,1.19-2.85,1.19s-2.06-.39-2.85-1.18h0ZM6.7,22.87c0,.55.21,1.1.63,1.52.42.42.97.63,1.52.63s1.1-.21,1.52-.63h0c.42-.42.63-.97.63-1.52s-.2-1.07-.59-1.48l-.04-.04h0c-.42-.42-.97-.63-1.52-.63s-1.1.21-1.52.63h0c-.42.42-.63.97-.63,1.52h0ZM42.56,62.27c-.79-.79-1.18-1.82-1.18-2.85s.39-2.06,1.18-2.85c.79-.79,1.82-1.18,2.85-1.18s2.06.39,2.85,1.18h0c.79.79,1.18,1.82,1.18,2.85s-.39,2.06-1.18,2.85c-.79.79-1.82,1.18-2.85,1.18s-2.06-.39-2.85-1.18h0ZM43.26,59.43c0,.55.21,1.1.63,1.52.42.42.97.63,1.52.63s1.1-.21,1.52-.63c.42-.42.63-.97.63-1.52s-.21-1.1-.63-1.52h0c-.42-.42-.97-.63-1.52-.63s-1.1.21-1.52.63c-.42.42-.63.97-.63,1.52h0ZM4.03,51.51c-.06-.05-.12-.12-.17-.19-1.13-1.61-1.4-3.79-.94-5.91.45-2.05,1.6-4.06,3.34-5.43.7-.56.92-1.31.81-2.02-.06-.4-.23-.8-.47-1.16-.24-.36-.56-.68-.93-.92l-.04-.03c-.71-.44-1.62-.56-2.54-.08-.89.47-1.23.95-1.23,1.34,0,.14.04.28.12.4.09.14.21.26.36.36.37.23.87.28,1.3,0,.43-.28,1.01-.16,1.3.27.28.43.16,1.01-.27,1.3-1.12.73-2.4.61-3.33.02-.39-.25-.73-.58-.96-.97C.14,38.08,0,37.61,0,37.11c0-1.04.62-2.15,2.24-3,1.59-.83,3.16-.61,4.4.15l.06.03c.53.34.99.78,1.35,1.28.42-1.21,1.07-2.31,1.89-3.21.32-.35.67-.67,1.04-.96-.58-.3-1.23-.54-1.96-.7-1.32.33-2.79.35-4.33-.06-.5-.13-.8-.65-.67-1.15.1-.36.39-.62.74-.68.06-.02.12-.04.19-.05,1.47-.21,2.8-.19,3.99,0,.98-.31,1.85-.84,2.56-1.5.73-.68,1.3-1.5,1.67-2.38.36-.86.53-1.77.45-2.66-.12-1.52-.98-2.96-2.8-3.89-3.33-1.7-5.14-4.25-5.83-6.91-.43-1.68-.41-3.4-.02-4.97.39-1.58,1.14-3.02,2.17-4.14C8.55.81,10.44-.11,12.59.01c.52.03.91.47.89.99-.03.52-.47.91-.99.89-1.55-.09-2.93.59-3.96,1.72-.81.88-1.41,2.04-1.73,3.32-.32,1.29-.34,2.69.01,4.06.56,2.17,2.07,4.27,4.86,5.7,2.48,1.27,3.65,3.28,3.83,5.4.08.97-.05,1.95-.36,2.9.45-.9.74-1.89.8-2.9.09-1.66,1.01-2.8,2.23-3.41.61-.3,1.3-.46,2-.48.69-.02,1.39.1,2.04.37,1.37.56,2.48,1.74,2.71,3.54.24,1.8-.32,2.95-1.16,3.55-.41.29-.88.45-1.35.48-.45.03-.92-.05-1.35-.23-1.02-.42-1.86-1.4-1.9-2.74-.01-.52.39-.95.91-.96.52-.01.95.39.96.91.02.51.34.89.74,1.06.17.07.34.1.51.09.14-.01.28-.05.39-.13.32-.23.52-.79.39-1.78-.14-1.04-.78-1.72-1.57-2.05-.4-.16-.85-.24-1.28-.23-.43.01-.85.11-1.22.29-.65.32-1.14.93-1.19,1.83-.12,2.21-1.11,4.31-2.53,5.85-.81.89-1.77,1.6-2.8,2.06.14.09.28.18.41.28.78-.27,1.61-.4,2.49-.34.52.03.91.47.89.99-.03.52-.47.91-.99.89-.26-.02-.51,0-.76.02.12.15.23.3.34.46.63.92,1.05,1.94,1.23,2.96.13.74.14,1.49.03,2.2.5-.78.87-1.65,1.05-2.58.31-1.63,1.37-2.64,2.66-3.08.65-.22,1.35-.29,2.04-.21.69.07,1.37.29,1.98.64,1.28.74,2.22,2.05,2.22,3.87,0,1.82-.71,2.89-1.62,3.37-.44.23-.93.32-1.4.29-.45-.03-.91-.17-1.31-.41-.96-.56-1.66-1.64-1.52-2.97.05-.51.51-.89,1.03-.84.51.05.89.51.84,1.03-.05.51.22.93.59,1.15.16.09.32.15.49.16.14,0,.29-.01.41-.08.35-.19.62-.71.62-1.71,0-1.06-.54-1.82-1.28-2.24-.38-.22-.8-.35-1.24-.4-.43-.05-.86,0-1.25.12-.69.23-1.25.77-1.42,1.65-.42,2.17-1.67,4.12-3.29,5.47-1.61,1.34-3.59,2.1-5.48,1.91.77,1.49,2.07,2.86,4.01,3.9-.02-.49,0-1.01.07-1.55.15-1.16.49-2.19.94-2.93.57-.96,1.36-1.5,2.21-1.39.86.11,1.48.83,1.79,1.9.22.75.3,1.72.21,2.77.5-.37,1.01-.65,1.48-.84,1.04-.41,1.99-.36,2.6.25.61.61.66,1.56.25,2.6-.16.4-.39.83-.68,1.26.91-.05,1.76.03,2.42.23,1.07.32,1.79.94,1.9,1.79v.12c.06.81-.48,1.54-1.39,2.09-.74.44-1.77.79-2.93.94,0,0-.01,0-.01,0h-.05c-.49.06-.96.08-1.41.06,1.04,2.02,2.44,3.36,3.96,4.16-.19-1.89.57-3.88,1.91-5.49,1.35-1.61,3.29-2.87,5.47-3.29.88-.17,1.42-.73,1.65-1.42.13-.39.17-.82.12-1.25-.05-.44-.18-.86-.4-1.24-.42-.74-1.19-1.28-2.24-1.28-1,0-1.52.27-1.71.62-.06.12-.09.26-.08.4.01.17.07.33.16.49.22.37.64.64,1.15.59.52-.05.98.32,1.03.84.05.51-.32.98-.84,1.03-1.33.14-2.41-.56-2.96-1.52-.23-.4-.38-.85-.41-1.3-.03-.48.06-.96.29-1.4.48-.92,1.55-1.62,3.37-1.62,1.82,0,3.13.94,3.86,2.22.35.61.57,1.29.64,1.97.08.69,0,1.4-.21,2.04-.44,1.29-1.44,2.35-3.08,2.67-1.08.21-2.1.68-2.97,1.32.88-.22,1.82-.25,2.76-.08,1.02.18,2.04.59,2.96,1.23.11.07.21.15.32.23.03-.26.04-.52.02-.79-.03-.52.37-.96.89-.99.52-.03.96.37.99.88.05.87-.07,1.69-.33,2.46.24.32.46.66.67,1.02.46-1.08,1.19-2.08,2.12-2.93,1.55-1.42,3.65-2.41,5.85-2.53.89-.05,1.5-.54,1.83-1.19.18-.37.28-.79.29-1.22.01-.44-.07-.88-.23-1.28-.32-.79-1-1.43-2.05-1.57-1-.13-1.55.07-1.78.39-.08.11-.12.25-.13.39-.01.17.02.34.09.51.17.4.54.73,1.06.74.52.02.93.45.91.96-.01.52-.45.93-.96.91-1.34-.04-2.32-.88-2.74-1.9-.18-.43-.26-.89-.23-1.35.03-.48.18-.94.48-1.35.6-.84,1.75-1.4,3.55-1.16,1.8.24,2.98,1.35,3.54,2.71.26.65.39,1.35.37,2.04-.02.7-.18,1.39-.48,2-.6,1.22-1.74,2.14-3.41,2.23-.45.02-.9.1-1.34.21.37-.03.74-.03,1.11,0,2.13.18,4.13,1.35,5.4,3.83,1.43,2.79,3.53,4.3,5.7,4.86,1.37.35,2.77.33,4.06.01,1.28-.31,2.44-.92,3.32-1.73,1.13-1.03,1.81-2.41,1.72-3.96-.03-.52.37-.96.89-.99.52-.03.96.37.99.89.12,2.15-.8,4.04-2.33,5.44-1.12,1.02-2.56,1.78-4.14,2.17-1.57.39-3.29.41-4.97-.02-2.66-.68-5.2-2.5-6.91-5.83-.93-1.82-2.38-2.68-3.89-2.8-.89-.07-1.8.09-2.66.46-.88.37-1.7.94-2.38,1.67-.71.76-1.26,1.69-1.55,2.73.15,1.08.16,2.27-.01,3.57v.03c.14.5-.16,1.01-.66,1.15-.5.13-1.01-.17-1.15-.67-.39-1.48-.39-2.88-.1-4.16-.17-.91-.46-1.72-.85-2.41-.29.39-.62.76-.99,1.09-.89.81-1.98,1.46-3.18,1.88.45.35.85.78,1.16,1.26l.04.06c.77,1.23.98,2.81.15,4.4-.84,1.61-1.96,2.23-2.99,2.24-.5,0-.97-.14-1.38-.39-.39-.24-.73-.57-.97-.96-.59-.93-.71-2.21.02-3.33.28-.43.86-.55,1.3-.27.43.28.55.86.27,1.3-.28.43-.23.93,0,1.3.1.15.22.28.36.36.12.07.26.12.4.12.4,0,.88-.34,1.34-1.23.48-.92.36-1.82-.08-2.53l-.03-.04c-.24-.37-.55-.68-.91-.93-.36-.24-.76-.4-1.17-.47-.72-.11-1.47.11-2.02.81-1.37,1.74-3.39,2.89-5.43,3.34-2.03.45-4.12.21-5.71-.8-.32-.15-.64-.32-.94-.51-1.32-.83-2.42-2.07-3.1-3.7-1.1.48-2.33.73-3.65.67-.11.26-.33.47-.63.55-.5.13-1.01-.17-1.15-.67l-.04-.14-.14-.04c-.5-.13-.8-.65-.67-1.15.08-.3.29-.52.55-.63-.05-1.29.19-2.5.64-3.59-1.54-.68-2.73-1.76-3.54-3.02-.16-.26-.31-.52-.44-.79h0ZM7.72,41.2c-.06.06-.13.12-.2.17.07-.03.14-.06.22-.09l-.02-.08h0ZM17.69,62.71c.11.03.22.07.32.14l.02.02c.52.23,1.06.38,1.61.45.85.11,1.71.05,2.52-.21,1.38-.44,2.59-1.44,3.29-3.04-2.12-.9-4.08-2.61-5.48-5.34-.45-.87-1.01-1.53-1.65-1.98,0,.98-.23,1.97-.62,2.91-.47,1.12-1.2,2.17-2.12,3.03-.26.24-.53.47-.82.68.51,1.37,1.39,2.39,2.45,3.06.16.1.33.2.5.28h0ZM13.52,54.11s.08,0,.12.02h0s.02,0,.02,0h0s.02,0,.02,0h0s.02,0,.02,0h0s.02,0,.02,0h0s.02,0,.02,0h0c.06.02.13.05.18.09h0s.06.04.09.07h0s.02.01.02.01h.02s0,.02,0,.02h.02s0,.02,0,.02h.01s0,.02,0,.02h.01s0,.02,0,.02h.01s0,.02,0,.02h.01s0,.02,0,.02v.02s.03.02.03.02h0s.04.06.06.09h0c.04.06.06.12.09.18h0s0,.02,0,.02h0s0,.02,0,.02h0s0,.02,0,.02h0s0,.02,0,.02h0s0,.02,0,.02h0s.01.08.02.12h0s0,.01,0,.01h0v.02h0s0,.02,0,.02h0v.02h0s0,.02,0,.02h0v.02h0s0,.02,0,.02h0s0,.05,0,.05h0c-.1.77-.12,1.48-.07,2.13.73-.68,1.3-1.5,1.67-2.37.36-.86.53-1.77.46-2.66,0-.1-.02-.21-.04-.31-.1-.02-.21-.03-.31-.04-.89-.07-1.8.09-2.66.45-.88.37-1.7.94-2.38,1.67l-.1.11c.72.08,1.51.07,2.36-.04h.01s.05,0,.05,0h.01s.01,0,.01,0h.01s.01,0,.01,0h.01s.01,0,.01,0h.04s.01,0,.01,0h.01s.01,0,.01,0h.01s0,0,0,0h0ZM12.41,56.08c-.93.04-1.8-.03-2.59-.19-.43.95-.65,2.04-.56,3.2,1.21.09,2.33-.14,3.3-.6-.14-.74-.19-1.55-.15-2.41h0ZM9.54,40.74c.28-.05.57-.1.87-.13,2.07-.22,3.3-1.35,3.73-2.77.21-.67.24-1.42.1-2.16-.14-.76-.45-1.52-.93-2.22-.21-.31-.45-.6-.73-.87-.47.28-.89.63-1.27,1.05-.81.88-1.41,2.04-1.73,3.32-.29,1.2-.33,2.51-.05,3.79h0ZM8.35,43.07c-1.56.7-2.54,1.9-2.97,3.26-.26.81-.32,1.68-.21,2.52.12.85.41,1.69.89,2.44.64,1.01,1.6,1.86,2.88,2.38.22-.31.47-.61.73-.89.86-.92,1.91-1.65,3.03-2.12.94-.4,1.93-.61,2.91-.62-.46-.64-1.11-1.2-1.98-1.65-2.66-1.36-4.35-3.26-5.27-5.32h0ZM35.76,55.76c-.23-.22-.48-.42-.73-.59-.7-.48-1.46-.79-2.22-.93-.75-.13-1.49-.1-2.16.1-1.42.43-2.55,1.66-2.77,3.73-.03.26-.06.52-.11.77,1.23.25,2.48.2,3.63-.08,1.28-.31,2.44-.92,3.32-1.73.41-.38.77-.81,1.05-1.27h0ZM20.51,51.29c-.31.19-.5.32-.5.37,0,.04.22.13.57.23.58.17,1.36.22,2.23.12.05-.01.1-.02.16-.02.86-.12,1.61-.37,2.13-.68.29-.17.47-.3.49-.35v-.02s-.25-.12-.57-.22c-.58-.17-1.37-.22-2.23-.12h-.08s0,.01,0,.01c-.89.11-1.67.37-2.2.68h0ZM18.26,50.12s.25-.03.59-.17c.56-.22,1.22-.66,1.84-1.28l.04-.05c.64-.64,1.1-1.32,1.33-1.89.13-.33.2-.56.17-.59-.03-.03-.25.04-.59.17-.56.22-1.22.66-1.85,1.28l-.05.05h0c-.64.64-1.1,1.31-1.32,1.89-.13.33-.2.56-.17.59Z"/></g></svg>