<?xml version="1.0" encoding="UTF-8"?>
<svg id="Layer_2" xmlns="http://www.w3.org/2000/svg" version="1.1" viewBox="0 0 68.6 68.2">
  <!-- Generator: Adobe Illustrator 29.1.0, SVG Export Plug-In . SVG Version: 2.1.0 Build 142)  -->
  <defs>
    <style>
      .st0 {
        fill: #fff;
        fill-rule: evenodd;
      }
    </style>
  </defs>
  <g id="Isolation_Mode">
    <path class="st0" d="M16.5,48.2s.2-.2.4-.5c.3-.5.6-1.3.7-2.1,0,0,0-.1,0-.2.1-.9,0-1.7-.1-2.2-.1-.3-.2-.6-.2-.6,0,0-.2.2-.4.5-.3.5-.6,1.3-.7,2.2-.1.9,0,1.7.1,2.3.1.3.2.6.2.6h0ZM6,25.7c-.8-.8-1.2-1.8-1.2-2.9s.4-2.1,1.2-2.9h0c.8-.8,1.8-1.2,2.9-1.2s2.1.4,2.9,1.2h0c.8.8,1.1,1.8,1.1,2.8s-.4,2.1-1.2,2.9h0c-.8.8-1.8,1.2-2.9,1.2s-2.1-.4-2.8-1.2h0ZM6.7,22.9c0,.5.2,1.1.6,1.5s1,.6,1.5.6,1.1-.2,1.5-.6h0c.4-.4.6-1,.6-1.5s-.2-1.1-.6-1.5h0c-.4-.5-1-.7-1.5-.7s-1.1.2-1.5.6h0c-.4.4-.6,1-.6,1.5h0ZM42.6,62.3c-.8-.8-1.2-1.8-1.2-2.8s.4-2.1,1.2-2.8c.8-.8,1.8-1.2,2.8-1.2s2.1.4,2.8,1.2h0c.8.8,1.2,1.8,1.2,2.8s-.4,2.1-1.2,2.8c-.8.8-1.8,1.2-2.8,1.2s-2.1-.4-2.8-1.2h0ZM43.3,59.4c0,.5.2,1.1.6,1.5s1,.6,1.5.6,1.1-.2,1.5-.6.6-1,.6-1.5-.2-1.1-.6-1.5h0c-.4-.4-1-.6-1.5-.6s-1.1.2-1.5.6-.6,1-.6,1.5h0ZM4,51.5c0,0-.1-.1-.2-.2-1.1-1.6-1.4-3.8-.9-5.9.5-2,1.6-4.1,3.3-5.4.7-.6.9-1.3.8-2,0-.4-.2-.8-.5-1.2s-.6-.7-.9-.9h0c-.7-.5-1.6-.6-2.5-.1-.9.5-1.2,1-1.2,1.3s0,.3.1.4c0,.1.2.3.4.4.4.2.9.3,1.3,0s1-.2,1.3.3c.3.4.2,1-.3,1.3-1.1.7-2.4.6-3.3,0-.4-.2-.7-.6-1-1-.2-.4-.4-.9-.4-1.4,0-1,.6-2.2,2.2-3,1.6-.8,3.2-.6,4.4.2h0c.5.4,1,.8,1.3,1.3.4-1.2,1.1-2.3,1.9-3.2.3-.3.7-.7,1-1-.6-.3-1.2-.5-2-.7-1.3.3-2.8.4-4.3,0-.5-.1-.8-.6-.7-1.1,0-.4.4-.6.7-.7,0,0,.1,0,.2,0,1.5-.2,2.8-.2,4,0,1-.3,1.9-.8,2.6-1.5.7-.7,1.3-1.5,1.7-2.4.4-.9.5-1.8.4-2.7-.1-1.5-1-3-2.8-3.9-3.3-1.7-5.1-4.2-5.8-6.9-.4-1.7-.4-3.4,0-5,.4-1.6,1.1-3,2.2-4.1C8.6.8,10.4-.1,12.6,0c.5,0,.9.5.9,1,0,.5-.5.9-1,.9-1.6,0-2.9.6-4,1.7-.8.9-1.4,2-1.7,3.3-.3,1.3-.3,2.7,0,4.1.6,2.2,2.1,4.3,4.9,5.7,2.5,1.3,3.7,3.3,3.8,5.4,0,1,0,2-.4,2.9.4-.9.7-1.9.8-2.9,0-1.7,1-2.8,2.2-3.4.6-.3,1.3-.5,2-.5.7,0,1.4.1,2,.4,1.4.6,2.5,1.7,2.7,3.5.2,1.8-.3,3-1.2,3.5-.4.3-.9.5-1.4.5-.5,0-.9,0-1.4-.2-1-.4-1.9-1.4-1.9-2.7,0-.5.4-1,.9-1,.5,0,1,.4,1,.9,0,.5.3.9.7,1.1.2,0,.3.1.5,0,.1,0,.3,0,.4-.1.3-.2.5-.8.4-1.8-.1-1-.8-1.7-1.6-2-.4-.2-.9-.2-1.3-.2s-.9.1-1.2.3c-.6.3-1.1.9-1.2,1.8-.1,2.2-1.1,4.3-2.5,5.9-.8.9-1.8,1.6-2.8,2.1.1,0,.3.2.4.3.8-.3,1.6-.4,2.5-.3.5,0,.9.5.9,1,0,.5-.5.9-1,.9-.3,0-.5,0-.8,0,.1.1.2.3.3.5.6.9,1.1,1.9,1.2,3,.1.7.1,1.5,0,2.2.5-.8.9-1.7,1-2.6.3-1.6,1.4-2.6,2.7-3.1.6-.2,1.4-.3,2-.2.7,0,1.4.3,2,.6,1.3.7,2.2,2,2.2,3.9s-.7,2.9-1.6,3.4c-.4.2-.9.3-1.4.3-.5,0-.9-.2-1.3-.4-1-.6-1.7-1.6-1.5-3,0-.5.5-.9,1-.8.5,0,.9.5.8,1,0,.5.2.9.6,1.2.2,0,.3.2.5.2.1,0,.3,0,.4,0,.4-.2.6-.7.6-1.7s-.5-1.8-1.3-2.2c-.4-.2-.8-.3-1.2-.4-.4,0-.9,0-1.2.1-.7.2-1.2.8-1.4,1.7-.4,2.2-1.7,4.1-3.3,5.5-1.6,1.3-3.6,2.1-5.5,1.9.8,1.5,2.1,2.9,4,3.9,0-.5,0-1,0-1.5.1-1.2.5-2.2.9-2.9.6-1,1.4-1.5,2.2-1.4.9.1,1.5.8,1.8,1.9.2.8.3,1.7.2,2.8.5-.4,1-.7,1.5-.8,1-.4,2-.4,2.6.2s.7,1.6.2,2.6c-.2.4-.4.8-.7,1.3.9,0,1.8,0,2.4.2,1.1.3,1.8.9,1.9,1.8h0c0,.9-.5,1.7-1.4,2.2-.7.4-1.8.8-2.9.9h0c-.5,0-1,0-1.4,0,1,2,2.4,3.4,4,4.2-.2-1.9.6-3.9,1.9-5.5,1.4-1.6,3.3-2.9,5.5-3.3.9-.2,1.4-.7,1.7-1.4.1-.4.2-.8.1-1.2,0-.4-.2-.9-.4-1.2-.4-.7-1.2-1.3-2.2-1.3s-1.5.3-1.7.6c0,.1,0,.3,0,.4,0,.2,0,.3.2.5.2.4.6.6,1.1.6.5,0,1,.3,1,.8,0,.5-.3,1-.8,1-1.3.1-2.4-.6-3-1.5-.2-.4-.4-.8-.4-1.3,0-.5,0-1,.3-1.4.5-.9,1.5-1.6,3.4-1.6s3.1.9,3.9,2.2c.3.6.6,1.3.6,2,0,.7,0,1.4-.2,2-.4,1.3-1.4,2.3-3.1,2.7-1.1.2-2.1.7-3,1.3.9-.2,1.8-.2,2.8,0,1,.2,2,.6,3,1.2.1,0,.2.2.3.2,0-.3,0-.5,0-.8,0-.5.4-1,.9-1,.5,0,1,.4,1,.9,0,.9,0,1.7-.3,2.5.2.3.5.7.7,1,.5-1.1,1.2-2.1,2.1-2.9,1.5-1.4,3.7-2.4,5.8-2.5.9,0,1.5-.5,1.8-1.2.2-.4.3-.8.3-1.2,0-.4,0-.9-.2-1.3-.3-.8-1-1.4-2-1.6-1-.1-1.5,0-1.8.4,0,.1-.1.2-.1.4,0,.2,0,.3,0,.5.2.4.5.7,1.1.7.5,0,.9.5.9,1,0,.5-.5.9-1,.9-1.3,0-2.3-.9-2.7-1.9-.2-.4-.3-.9-.2-1.3,0-.5.2-.9.5-1.3.6-.8,1.8-1.4,3.5-1.2s3,1.3,3.5,2.7c.3.7.4,1.3.4,2,0,.7-.2,1.4-.5,2-.6,1.2-1.7,2.1-3.4,2.2-.5,0-.9,0-1.3.2.4,0,.7,0,1.1,0,2.1.2,4.1,1.3,5.4,3.8,1.4,2.8,3.5,4.3,5.7,4.9,1.4.3,2.8.3,4.1,0,1.3-.3,2.4-.9,3.3-1.7,1.1-1,1.8-2.4,1.7-4,0-.5.4-1,.9-1,.5,0,1,.4,1,.9.1,2.2-.8,4-2.3,5.4-1.1,1-2.6,1.8-4.1,2.2-1.6.4-3.3.4-5,0-2.7-.7-5.2-2.5-6.9-5.8-.9-1.8-2.4-2.7-3.9-2.8-.9,0-1.8,0-2.7.5-.9.4-1.7.9-2.4,1.7-.7.8-1.3,1.7-1.5,2.7.2,1.1.2,2.3,0,3.6h0c.1.5-.2,1-.7,1.2-.5.1-1-.2-1.2-.7-.4-1.5-.4-2.9,0-4.2-.2-.9-.5-1.7-.8-2.4-.3.4-.6.8-1,1.1-.9.8-2,1.5-3.2,1.9.5.3.8.8,1.2,1.3h0c.8,1.3,1,2.9.2,4.5-.8,1.6-2,2.2-3,2.2-.5,0-1-.1-1.4-.4-.4-.2-.7-.6-1-1-.6-.9-.7-2.2,0-3.3.3-.4.9-.5,1.3-.3.4.3.5.9.3,1.3-.3.4-.2.9,0,1.3.1.2.2.3.4.4.1,0,.3.1.4.1.4,0,.9-.3,1.3-1.2.5-.9.4-1.8,0-2.5h0c-.2-.4-.5-.7-.9-1-.4-.2-.8-.4-1.2-.5-.7-.1-1.5.1-2,.8-1.4,1.7-3.4,2.9-5.4,3.3-2,.4-4.1.2-5.7-.8-.3-.2-.6-.3-.9-.5-1.3-.8-2.4-2.1-3.1-3.7-1.1.5-2.3.7-3.6.7-.1.3-.3.5-.6.5-.5.1-1-.2-1.2-.7h0c0-.1-.1-.2-.1-.2-.5-.1-.8-.7-.7-1.2,0-.3.3-.5.6-.6,0-1.3.2-2.5.6-3.6-1.5-.7-2.7-1.8-3.5-3-.2-.3-.3-.5-.4-.8h0ZM7.7,41.2c0,0-.1.1-.2.2,0,0,.1,0,.2,0h0q0,0,0,0ZM17.7,62.7c.1,0,.2,0,.3.1h0c.5.2,1.1.4,1.6.5.9.1,1.7,0,2.5-.2,1.4-.4,2.6-1.4,3.3-3-2.1-.9-4.1-2.6-5.5-5.3-.5-.9-1-1.5-1.6-2,0,1-.2,2-.6,2.9-.5,1.1-1.2,2.2-2.1,3-.3.2-.5.5-.8.7.5,1.4,1.4,2.4,2.4,3.1.2,0,.3.2.5.3h0ZM13.5,54.1s0,0,.1,0h.1c0,0,.1,0,.2,0h0s0,0,0,0h0s0,0,0,0h0s0,0,0,0h0s0,0,0,0h0s0,0,0,0h0s0,0,0,0h0s0,0,0,0h0s0,0,0,0h0s0,0,0,0h0c0,0,0,.1,0,.2h0c0,.1,0,.2,0,.2h0v.2h0c-.1.8-.1,1.5,0,2.1.7-.7,1.3-1.5,1.7-2.4.4-.9.5-1.8.5-2.7,0,0,0-.2,0-.3-.1,0-.2,0-.3,0-.9,0-1.8,0-2.7.5-.9.4-1.7.9-2.4,1.7h-.1c.7.2,1.5.2,2.4,0h.3ZM12.4,56.1c-.9,0-1.8,0-2.6-.2-.4,1-.6,2-.6,3.2,1.2,0,2.3-.1,3.3-.6-.1-.7-.2-1.5-.1-2.4h0ZM9.5,40.7c.3,0,.6,0,.9-.1,2.1-.2,3.3-1.3,3.7-2.8.2-.7.2-1.4.1-2.2-.1-.8-.4-1.5-.9-2.2-.2-.3-.4-.6-.7-.9-.5.3-.9.6-1.3,1-.8.9-1.4,2-1.7,3.3-.3,1.2-.3,2.5,0,3.8h0ZM8.4,43.1c-1.6.7-2.5,1.9-3,3.3-.3.8-.3,1.7-.2,2.5.1.8.4,1.7.9,2.4.6,1,1.6,1.9,2.9,2.4.2-.3.5-.6.7-.9.9-.9,1.9-1.7,3-2.1.9-.4,1.9-.6,2.9-.6-.5-.6-1.1-1.2-2-1.7-2.7-1.4-4.4-3.3-5.3-5.3h0ZM35.8,55.8c-.2-.2-.5-.4-.7-.6-.7-.5-1.5-.8-2.2-.9-.8-.1-1.5,0-2.2,0-1.4.4-2.5,1.7-2.8,3.7,0,.3,0,.5-.1.8,1.2.2,2.5.2,3.6,0,1.3-.3,2.4-.9,3.3-1.7.4-.4.8-.8,1-1.3h0ZM20.5,51.3c-.3.2-.5.3-.5.4s.2.1.6.2c.6.2,1.4.2,2.2.1,0,0,.1,0,.2,0,.9-.1,1.6-.4,2.1-.7.3-.2.5-.3.5-.3h0s-.2-.1-.6-.2c-.6-.2-1.4-.2-2.2-.1h0c-.9.1-1.7.4-2.2.7h0ZM18.3,50.1s.2,0,.6-.2c.6-.2,1.2-.7,1.8-1.3h0c.6-.7,1.1-1.4,1.3-1.9.1-.3.2-.6.2-.6s-.2,0-.6.2c-.6.2-1.2.7-1.9,1.3h0c-.6.7-1.1,1.4-1.3,1.9-.1.3-.2.6-.2.6h0Z"/>
  </g>
</svg>