<?xml version="1.0" encoding="UTF-8"?><svg id="Layer_2" xmlns="http://www.w3.org/2000/svg" viewBox="0 0 68.25 68.58"><defs><style>.cls-1{fill:#1e1e1e;fill-rule:evenodd;}</style></defs><g id="Isolation_Mode"><path class="cls-1" d="M48.17,52.05s-.18-.18-.49-.37c-.52-.31-1.26-.56-2.13-.68-.05,0-.11,0-.16-.02-.86-.1-1.65-.05-2.23.12-.35.1-.56.19-.57.23,0,.04.18.18.49.37.53.32,1.31.57,2.2.68.9.11,1.71.06,2.31-.11.35-.1.56-.19.57-.23h0ZM25.71,62.58c-.79.79-1.82,1.18-2.85,1.18s-2.06-.39-2.85-1.18h0c-.79-.79-1.18-1.82-1.18-2.85s.39-2.06,1.18-2.85h0s.06-.06.06-.06c.78-.75,1.79-1.13,2.79-1.13s2.06.39,2.85,1.18h0c.79.79,1.18,1.82,1.18,2.85s-.39,2.06-1.18,2.85h0ZM22.87,61.88c.55,0,1.1-.21,1.52-.63.42-.42.63-.97.63-1.52s-.21-1.1-.63-1.52h0c-.42-.42-.97-.63-1.52-.63s-1.07.2-1.48.59l-.04.04h0c-.42.42-.63.97-.63,1.52s.21,1.1.63,1.52h0c.42.42.97.63,1.52.63h0ZM62.27,26.02c-.79.79-1.82,1.18-2.85,1.18s-2.06-.39-2.85-1.18c-.79-.79-1.18-1.82-1.18-2.85s.39-2.06,1.18-2.85h0c.79-.79,1.82-1.18,2.84-1.18s2.06.39,2.85,1.18c.79.79,1.18,1.82,1.18,2.85s-.39,2.06-1.18,2.85h0ZM59.43,25.32c.55,0,1.1-.21,1.52-.63.42-.42.63-.97.63-1.52s-.21-1.1-.63-1.52c-.42-.42-.97-.63-1.52-.63s-1.1.21-1.52.63h0c-.42.42-.63.97-.63,1.52s.21,1.1.63,1.52c.42.42.97.63,1.52.63h0ZM51.51,64.55c-.05.06-.12.12-.19.17-1.61,1.13-3.79,1.4-5.91.94-2.05-.45-4.06-1.6-5.43-3.34-.56-.7-1.31-.92-2.02-.81-.4.06-.8.23-1.16.47-.36.24-.68.56-.92.93l-.03.04c-.44.71-.56,1.62-.08,2.54.47.89.95,1.23,1.34,1.23.14,0,.28-.04.4-.12.14-.09.26-.21.36-.36.23-.37.28-.87,0-1.3-.28-.43-.16-1.01.27-1.3.43-.28,1.01-.16,1.3.27.73,1.12.61,2.4.02,3.33-.25.39-.58.73-.97.96-.41.25-.88.39-1.38.39-1.04,0-2.15-.62-3-2.24-.83-1.59-.61-3.16.15-4.4l.03-.06c.34-.53.78-.99,1.28-1.35-1.21-.42-2.31-1.07-3.21-1.89-.35-.32-.67-.67-.96-1.04-.3.58-.54,1.23-.7,1.96.33,1.32.35,2.79-.06,4.33-.13.5-.65.8-1.15.67-.36-.1-.62-.39-.68-.74-.02-.06-.04-.12-.05-.19-.21-1.47-.19-2.8,0-3.99-.31-.98-.84-1.85-1.5-2.56-.68-.73-1.5-1.3-2.38-1.67-.86-.36-1.77-.53-2.66-.45-1.52.12-2.96.98-3.89,2.8-1.7,3.33-4.25,5.14-6.91,5.83-1.68.43-3.4.41-4.97.02-1.58-.39-3.02-1.14-4.14-2.17C.81,60.03-.11,58.13.01,55.98c.03-.52.47-.91.99-.89.52.03.91.47.89.99-.09,1.55.59,2.93,1.72,3.96.88.81,2.04,1.41,3.32,1.73,1.29.32,2.69.34,4.06-.01,2.17-.56,4.27-2.07,5.7-4.86,1.27-2.48,3.28-3.65,5.4-3.83.97-.08,1.95.05,2.9.36-.9-.45-1.89-.74-2.9-.8-1.66-.09-2.8-1.01-3.41-2.23-.3-.61-.46-1.3-.48-2-.02-.69.1-1.39.37-2.04.56-1.37,1.74-2.48,3.54-2.71,1.8-.24,2.95.32,3.55,1.16.29.41.45.88.48,1.35.03.45-.05.92-.23,1.35-.42,1.02-1.4,1.86-2.74,1.9-.52.01-.95-.39-.96-.91-.01-.52.39-.95.91-.96.51-.02.89-.34,1.06-.74.07-.17.1-.34.09-.51-.01-.14-.05-.28-.13-.39-.23-.32-.79-.52-1.78-.39-1.04.14-1.72.78-2.05,1.57-.16.4-.24.85-.23,1.28.01.43.11.85.29,1.22.32.65.93,1.14,1.83,1.19,2.21.12,4.31,1.11,5.85,2.53.89.81,1.6,1.77,2.06,2.8.09-.14.18-.28.28-.41-.27-.78-.4-1.61-.34-2.49.03-.52.47-.91.99-.89.52.03.91.47.89.99-.02.26,0,.51.02.76.15-.12.3-.23.46-.34.92-.63,1.94-1.05,2.96-1.23.74-.13,1.49-.14,2.2-.03-.78-.5-1.65-.87-2.58-1.05-1.63-.31-2.64-1.37-3.08-2.66-.22-.65-.29-1.35-.21-2.04.07-.69.29-1.37.64-1.98.74-1.28,2.05-2.22,3.87-2.22,1.82,0,2.89.71,3.37,1.62.23.44.32.93.29,1.4-.03.45-.17.91-.41,1.31-.56.96-1.64,1.66-2.97,1.52-.51-.05-.89-.51-.84-1.03.05-.51.51-.89,1.03-.84.51.05.93-.22,1.15-.59.09-.16.15-.32.16-.49,0-.14-.01-.29-.08-.41-.19-.35-.71-.62-1.71-.62-1.06,0-1.82.54-2.24,1.28-.22.38-.35.8-.4,1.24-.05.43,0,.86.12,1.25.23.69.77,1.25,1.65,1.42,2.17.42,4.12,1.67,5.47,3.29,1.34,1.61,2.1,3.59,1.91,5.48,1.49-.77,2.86-2.07,3.9-4.01-.49.02-1.01,0-1.55-.07-1.16-.15-2.19-.49-2.93-.94-.96-.57-1.5-1.36-1.39-2.21.11-.86.83-1.48,1.9-1.79.75-.22,1.72-.3,2.77-.21-.37-.5-.65-1.01-.84-1.48-.41-1.04-.36-1.99.25-2.6.61-.61,1.56-.66,2.6-.25.4.16.83.39,1.26.68-.05-.91.03-1.76.23-2.42.32-1.07.94-1.79,1.79-1.9h.12c.81-.06,1.54.48,2.09,1.39.44.74.79,1.77.94,2.93,0,0,0,.01,0,.01v.05c.06.49.08.96.06,1.41,2.02-1.04,3.36-2.44,4.16-3.96-1.89.19-3.88-.57-5.49-1.91-1.61-1.35-2.87-3.29-3.29-5.47-.17-.88-.73-1.42-1.42-1.65-.39-.13-.82-.17-1.25-.12-.44.05-.86.18-1.24.4-.74.42-1.28,1.19-1.28,2.24,0,1,.27,1.52.62,1.71.12.06.26.09.4.08.17-.01.33-.07.49-.16.37-.22.64-.64.59-1.15-.05-.52.32-.98.84-1.03.51-.05.98.32,1.03.84.14,1.33-.56,2.41-1.52,2.96-.4.23-.85.38-1.3.41-.48.03-.96-.06-1.4-.29-.92-.48-1.62-1.55-1.62-3.37,0-1.82.94-3.13,2.22-3.86.61-.35,1.29-.57,1.97-.64.69-.08,1.4,0,2.04.21,1.29.44,2.35,1.44,2.67,3.08.21,1.08.68,2.1,1.32,2.97-.22-.88-.25-1.82-.08-2.76.18-1.02.59-2.04,1.23-2.96.07-.11.15-.21.23-.32-.26-.03-.52-.04-.79-.02-.52.03-.96-.37-.99-.89-.03-.52.37-.96.88-.99.87-.05,1.69.07,2.46.33.32-.24.66-.46,1.02-.67-1.08-.46-2.08-1.19-2.93-2.12-1.42-1.55-2.41-3.65-2.53-5.85-.05-.89-.54-1.5-1.19-1.83-.37-.18-.79-.28-1.22-.29-.44-.01-.88.07-1.28.23-.79.32-1.43,1-1.57,2.05-.13,1,.07,1.55.39,1.78.11.08.25.12.39.13.17.01.34-.02.51-.09.4-.17.73-.54.74-1.06.02-.52.45-.93.96-.91.52.01.93.45.91.96-.04,1.34-.88,2.32-1.9,2.74-.43.18-.89.26-1.35.23-.48-.03-.94-.18-1.35-.48-.84-.6-1.4-1.75-1.16-3.55.24-1.8,1.35-2.98,2.71-3.54.65-.26,1.35-.39,2.04-.37.7.02,1.39.18,2,.48,1.22.6,2.14,1.74,2.23,3.41.02.45.1.9.21,1.34-.03-.37-.03-.74,0-1.11.18-2.13,1.35-4.13,3.83-5.4,2.79-1.43,4.3-3.53,4.86-5.7.35-1.37.33-2.77.01-4.06-.31-1.28-.92-2.44-1.73-3.32-1.03-1.13-2.41-1.81-3.96-1.72-.52.03-.96-.37-.99-.89-.03-.52.37-.96.89-.99,2.15-.12,4.04.8,5.44,2.33,1.02,1.12,1.78,2.56,2.17,4.14.39,1.57.41,3.29-.02,4.97-.68,2.66-2.5,5.2-5.83,6.91-1.82.93-2.68,2.38-2.8,3.89-.07.89.09,1.8.46,2.66.37.88.94,1.7,1.67,2.38.76.71,1.69,1.26,2.73,1.55,1.08-.15,2.27-.16,3.57.01h.03c.5-.14,1.01.16,1.15.66.13.5-.17,1.01-.67,1.15-1.48.39-2.88.39-4.16.1-.91.17-1.72.46-2.41.85.39.29.76.62,1.09.99.81.89,1.46,1.98,1.88,3.18.35-.45.78-.85,1.26-1.16l.06-.04c1.23-.77,2.81-.98,4.4-.15,1.61.84,2.23,1.96,2.24,2.99,0,.5-.14.97-.39,1.38-.24.39-.57.73-.96.97-.93.59-2.21.71-3.33-.02-.43-.28-.55-.86-.27-1.3.28-.43.86-.55,1.3-.27.43.28.93.23,1.3,0,.15-.1.28-.22.36-.36.07-.12.12-.26.12-.4,0-.4-.34-.88-1.23-1.34-.92-.48-1.82-.36-2.53.08l-.04.03c-.37.24-.68.55-.93.91-.24.36-.4.76-.47,1.17-.11.72.11,1.47.81,2.02,1.74,1.37,2.89,3.39,3.34,5.43.45,2.03.21,4.12-.8,5.71-.15.32-.32.64-.51.94-.83,1.32-2.07,2.42-3.7,3.1.48,1.1.73,2.33.67,3.65.26.11.47.33.55.63.13.5-.17,1.01-.67,1.15l-.14.04-.04.14c-.13.5-.65.8-1.15.67-.3-.08-.52-.29-.63-.55-1.29.05-2.5-.19-3.59-.64-.68,1.54-1.76,2.73-3.02,3.54-.26.16-.52.31-.79.44h0ZM41.2,60.86c.06.06.12.13.17.2-.03-.07-.06-.14-.09-.22l-.08.02h0ZM62.71,50.89c.03-.11.07-.22.14-.32l.02-.02c.23-.52.38-1.06.45-1.61.11-.85.05-1.71-.21-2.52-.44-1.38-1.44-2.59-3.04-3.29-.9,2.12-2.61,4.08-5.34,5.48-.87.45-1.53,1.01-1.98,1.65.98,0,1.97.23,2.91.62,1.12.47,2.17,1.2,3.03,2.12.24.26.47.53.68.82,1.37-.51,2.39-1.39,3.06-2.45.1-.16.2-.33.28-.5h0ZM54.11,55.06s0-.08.02-.12h0s0,0,0,0v-.02s0,0,0,0v-.02s0,0,0,0v-.02s0,0,0,0v-.02s0,0,0,0v-.02s0,0,0,0c.02-.06.05-.13.09-.18h0s.04-.06.06-.09h0s.01-.02.01-.02v-.02s.02,0,.02,0v-.02s.02,0,.02,0h.01s0-.02,0-.02h.01s0-.02,0-.02h.01s0-.01,0-.01h.01s0-.02,0-.02h.02s.02-.03.02-.03h0s.06-.05.09-.07h0c.06-.04.12-.07.18-.09h0s.02,0,.02,0h0s.02,0,.02,0h0s.02,0,.02,0h.02s0,0,0,0h.02s0,0,0,0h0s.08-.01.12-.02h.01s.01,0,.01,0h.04s.01,0,.01,0h.03s.01,0,.01,0h.02s.01,0,.01,0h.05s0,0,0,0h0c.76.1,1.46.12,2.12.07-.68-.73-1.5-1.3-2.37-1.67-.86-.36-1.77-.53-2.66-.46-.1,0-.21.02-.31.04-.02.1-.03.21-.04.31-.07.89.09,1.8.45,2.66.37.88.94,1.7,1.67,2.38l.11.1c.08-.72.07-1.51-.04-2.36h0s0-.01,0-.01v-.05s0,0,0,0h0v-.02h0v-.02h0v-.02h0v-.02h0v-.02h0v-.02h0ZM56.08,56.17c.04.93-.03,1.8-.19,2.59.95.43,2.04.65,3.2.56.09-1.21-.14-2.33-.6-3.3-.74.14-1.55.19-2.41.15h0ZM40.74,59.04c-.05-.28-.1-.57-.13-.87-.22-2.07-1.35-3.3-2.77-3.73-.67-.21-1.42-.24-2.16-.1-.76.14-1.52.45-2.22.93-.31.21-.6.45-.87.73.28.47.63.89,1.05,1.27.88.81,2.04,1.41,3.32,1.73,1.2.29,2.51.33,3.79.05h0ZM43.07,60.23c.7,1.56,1.9,2.54,3.26,2.97.81.26,1.68.32,2.52.21.85-.12,1.69-.41,2.44-.89,1.01-.64,1.86-1.6,2.38-2.88-.31-.22-.61-.47-.89-.73-.92-.86-1.65-1.91-2.12-3.03-.4-.94-.61-1.93-.62-2.91-.64.46-1.2,1.11-1.65,1.98-1.36,2.66-3.26,4.35-5.32,5.27h0ZM55.76,32.82c-.22.23-.42.48-.59.73-.48.7-.79,1.46-.93,2.22-.13.75-.1,1.49.1,2.16.43,1.42,1.66,2.55,3.73,2.77.26.03.52.06.77.11.25-1.23.2-2.48-.08-3.63-.31-1.28-.92-2.44-1.73-3.32-.38-.41-.81-.77-1.27-1.05h0ZM51.29,48.07c.19.31.32.5.37.5.04,0,.13-.22.23-.57.17-.58.22-1.36.12-2.23-.01-.05-.02-.1-.02-.16-.12-.86-.37-1.61-.68-2.13-.17-.29-.3-.47-.35-.49h-.02s-.12.25-.22.57c-.17.58-.22,1.37-.12,2.23v.08s.01,0,.01,0c.11.89.37,1.67.68,2.2h0ZM50.12,50.32s-.03-.25-.17-.59c-.22-.56-.66-1.22-1.28-1.84l-.05-.04c-.64-.64-1.32-1.1-1.89-1.33-.33-.13-.56-.2-.59-.17-.03.03.04.25.17.59.22.56.66,1.22,1.28,1.85l.05.05h0c.64.64,1.31,1.1,1.89,1.32.33.13.56.2.59.17Z"/></g></svg>