<?xml version="1.0" encoding="UTF-8"?><svg id="Layer_2" xmlns="http://www.w3.org/2000/svg" viewBox="0 0 145.13 12.75"><defs><style>.cls-1{fill:#1e1e1e;fill-rule:evenodd;}</style></defs><g id="Isolation_Mode"><path class="cls-1" d="M59.81,1.26H.7c-.39,0-.7.32-.7.7s.31.71.7.71h59.11c.39,0,.71-.32.71-.71s-.32-.7-.71-.7h0Z"/><path class="cls-1" d="M144.42,1.26h-59.11c-.39,0-.71.32-.71.7s.32.71.71.71h59.11c.39,0,.7-.32.7-.71s-.32-.7-.7-.7h0Z"/><path class="cls-1" d="M72.65,12.75c0-3.05,3.42-6,3.51-8.46.09-2.46-3.33-4.29-3.51-4.29s-3.61,1.84-3.52,4.29,3.52,5.41,3.52,8.46h0Z"/></g></svg>